<?xml version="1.0" encoding="utf-8"?>

<!DOCTYPE svg PUBLIC "-//W3C//DTD SVG 1.1//EN" "http://www.w3.org/Graphics/SVG/1.1/DTD/svg11.dtd">
<svg version="1.1" xmlns="http://www.w3.org/2000/svg" xmlns:xlink="http://www.w3.org/1999/xlink" x="0px" y="0px" viewBox="0 0 1260 710" enable-background="new 0 0 1260 710" xml:space="preserve">
<metadata> Svg Vector Icons : blackHole </metadata>
<g><g><g><path d="M500,14C229.4,14,10,233.4,10,504c0,127,48.3,242.6,127.5,329.7c-53.8-70.6-86.2-158.1-86.2-253.4c0-232.5,190.2-421,424.8-421c234.6,0,424.8,188.5,424.8,421c0,194-132.6,356.9-312.7,405.7C816.7,944.4,990,744.5,990,504C990,233.4,770.6,14,500,14z"/><path d="M594.9,688.1c87.3-45.4,132.4-147.9,102.4-245.2c-33.8-109.5-150-170.9-259.5-137c-109.5,33.8-170.8,150-137,259.5c15.9,51.4,49.8,92.1,92.8,117.5c-30.6-21.8-54.6-53.2-66.5-91.8c-29.1-94,24.3-194.1,119.3-223.4c94.9-29.3,195.4,23.2,224.5,117.2C695,563.3,661.7,645.8,594.9,688.1z"/><path d="M840.2,695.9c60.9-164-22.7-346.3-186.6-407.2c-8.4-3.1-16.9-5.8-25.3-8.2C759.7,342.2,823.8,496.2,771.9,636c-54.7,147.2-217.3,222.6-363.2,168.4c-104.3-38.8-171.5-133.3-181.5-237.8c-8.2,135.6,72.1,266.2,205.9,315.9C597,943.4,779.3,859.9,840.2,695.9z"/><path d="M130.5,509.4c-6.4,75.1,21.1,145.2,69.6,195.5c-16.2-47.7-22.4-101.9-16-158.2c14.8-130.2,92.7-233.7,189.3-267C247.5,283.1,141.4,380.8,130.5,509.4z"/><path d="M500,460.2c47.7,0,86.4,38.7,86.4,86.4c0,47.7-38.7,86.4-86.4,86.4c-47.7,0-86.4-38.7-86.4-86.4C413.6,498.8,452.3,460.2,500,460.2z"/></g></g><g></g><g></g><g></g><g></g><g></g><g></g><g></g><g></g><g></g><g></g><g></g><g></g><g></g><g></g><g></g></g>
</svg>